<svg xmlns="http://www.w3.org/2000/svg" width="512" height="512" viewBox="0 0 512 512" version="1.1"><path d="M 155.500 2.383 C 152.750 3.683, 149.289 6.041, 147.809 7.624 C 146.329 9.206, 144.201 12.525, 143.081 15 C 141.878 17.656, 141.035 21.651, 141.022 24.750 L 141 30 124.710 30 C 113.509 30, 106.634 30.465, 102.703 31.489 C 99.559 32.308, 94.330 34.319, 91.084 35.957 C 87.838 37.596, 82.480 41.438, 79.178 44.496 C 75.875 47.554, 71.717 52.325, 69.937 55.099 C 68.156 57.873, 65.530 63.148, 64.100 66.821 L 61.500 73.500 61.192 268.500 C 60.965 412.059, 61.186 464.951, 62.028 469 C 62.657 472.025, 64.813 477.875, 66.818 482 C 69.348 487.202, 72.461 491.491, 76.982 496 C 80.942 499.949, 86.054 503.786, 90.008 505.777 C 93.587 507.579, 98.987 509.711, 102.008 510.515 C 106.707 511.765, 128.877 511.978, 255.540 511.988 C 383.449 511.998, 404.357 511.798, 409.297 510.511 C 412.441 509.692, 417.670 507.681, 420.916 506.043 C 424.162 504.404, 429.520 500.562, 432.822 497.504 C 436.125 494.446, 440.283 489.675, 442.063 486.901 C 443.844 484.127, 446.470 478.852, 447.900 475.179 L 450.500 468.500 450.808 273.500 C 451.035 129.941, 450.814 77.049, 449.972 73 C 449.343 69.975, 447.187 64.125, 445.182 60 C 442.652 54.798, 439.539 50.509, 435.018 46 C 431.058 42.051, 425.946 38.214, 421.992 36.223 C 418.413 34.421, 413.013 32.289, 409.992 31.485 C 406.268 30.494, 399.315 30.020, 388.390 30.012 L 372.280 30 371.700 24.383 C 371.381 21.294, 369.957 16.389, 368.536 13.483 C 367.114 10.577, 364.387 7.007, 362.475 5.549 C 360.563 4.091, 357.439 2.246, 355.532 1.449 C 352.585 0.218, 337.671 0.001, 256.282 0.010 L 160.500 0.020 155.500 2.383 M 172 45 L 172 60 256.500 60 L 341 60 341 45 L 341 30 256.500 30 L 172 30 172 45 M 109.713 61.422 C 107.081 62.130, 103.256 64.056, 101.213 65.703 C 99.171 67.349, 96.295 71.127, 94.822 74.098 L 92.145 79.500 91.822 271 L 91.500 462.500 93.590 467 C 94.739 469.475, 97.493 473.133, 99.709 475.129 C 101.925 477.125, 105.485 479.375, 107.619 480.129 C 110.838 481.266, 136.245 481.500, 256.500 481.500 L 401.500 481.500 406.227 479.172 C 408.826 477.892, 412.160 475.417, 413.635 473.672 C 415.110 471.927, 417.094 468.700, 418.045 466.500 C 419.660 462.765, 419.799 449.817, 420.137 271 L 420.500 79.500 418.376 75 C 417.208 72.525, 414.733 69.060, 412.876 67.301 C 411.019 65.541, 407.700 63.319, 405.500 62.362 C 402.499 61.057, 397.853 60.518, 386.901 60.206 L 372.302 59.789 371.711 65.512 C 371.386 68.659, 369.957 73.611, 368.536 76.517 C 367.114 79.423, 364.387 82.993, 362.475 84.451 C 360.563 85.909, 357.439 87.754, 355.532 88.551 C 352.585 89.783, 337.691 89.997, 256.282 89.978 C 162.084 89.956, 160.426 89.922, 156 87.919 C 153.525 86.799, 150.206 84.671, 148.624 83.191 C 147.041 81.711, 144.683 78.250, 143.383 75.500 C 141.841 72.237, 141.016 68.676, 141.010 65.250 L 141 60 127.750 60.067 C 120.320 60.105, 112.397 60.700, 109.713 61.422 M 203.019 140.181 C 200.488 140.905, 194.470 146.201, 180.971 159.582 L 162.403 177.986 157.951 173.379 C 155.503 170.845, 152.052 168.148, 150.282 167.386 C 148.512 166.624, 145.587 166.001, 143.782 166.002 C 141.977 166.002, 138.934 166.790, 137.020 167.752 C 135.106 168.713, 132.518 171.029, 131.270 172.898 C 129.636 175.343, 129 177.754, 129 181.498 C 129 185.641, 129.581 187.494, 131.854 190.600 C 133.424 192.745, 139.035 198.668, 144.322 203.763 C 149.610 208.857, 155.105 213.470, 156.533 214.013 C 157.962 214.556, 160.923 215, 163.115 215 C 165.306 215, 168.314 214.355, 169.800 213.566 C 171.285 212.778, 183.391 201.190, 196.703 187.816 C 210.014 174.442, 221.376 162.233, 221.953 160.685 C 222.529 159.137, 223 156.166, 223 154.083 C 223 151.802, 222.105 148.981, 220.750 146.990 C 219.512 145.172, 217.375 142.896, 216 141.934 C 214.625 140.971, 211.925 139.959, 210 139.684 C 208.075 139.410, 204.934 139.633, 203.019 140.181 M 253.241 171.995 C 251.448 173.088, 249.088 175.448, 247.995 177.241 C 246.789 179.218, 246.007 182.270, 246.007 185 C 246.007 187.730, 246.789 190.782, 247.995 192.759 C 249.088 194.552, 251.448 196.912, 253.241 198.005 C 256.394 199.928, 258.389 199.993, 314.602 199.996 L 372.704 200 376.001 197.750 C 377.813 196.512, 380.130 193.932, 381.148 192.016 C 382.167 190.099, 383 186.942, 383 185 C 383 183.058, 382.167 179.901, 381.148 177.984 C 380.130 176.068, 377.813 173.488, 376.001 172.250 L 372.704 170 314.602 170.004 C 258.389 170.007, 256.394 170.072, 253.241 171.995 M 201.500 248.439 C 199.850 249.187, 190.422 257.927, 180.549 267.860 L 162.599 285.922 156.973 280.556 C 153.711 277.444, 149.825 274.770, 147.723 274.189 C 145.543 273.587, 142.584 273.529, 140.299 274.042 C 137.844 274.594, 135.173 276.315, 132.750 278.909 C 129.434 282.458, 129 283.511, 129 288.011 C 129 290.810, 129.637 294.314, 130.416 295.800 C 131.194 297.285, 137.157 303.746, 143.666 310.158 C 153.347 319.695, 156.200 321.947, 159.346 322.537 C 161.657 322.971, 164.851 322.766, 167.346 322.023 C 170.742 321.013, 175.676 316.654, 194.376 298.144 C 206.958 285.690, 218.546 273.499, 220.126 271.054 C 222.092 268.013, 223 265.323, 223 262.539 C 223 260.300, 222.166 256.901, 221.146 254.984 C 220.126 253.068, 217.539 250.495, 215.396 249.266 C 213.253 248.038, 209.925 247.043, 208 247.056 C 206.075 247.068, 203.150 247.690, 201.500 248.439 M 253.241 271.995 C 251.448 273.088, 249.088 275.448, 247.995 277.241 C 246.789 279.218, 246.007 282.270, 246.007 285 C 246.007 287.730, 246.789 290.782, 247.995 292.759 C 249.088 294.552, 251.448 296.912, 253.241 298.005 C 256.394 299.928, 258.389 299.993, 314.602 299.996 L 372.704 300 376.001 297.750 C 377.813 296.512, 380.130 293.932, 381.148 292.016 C 382.167 290.099, 383 286.942, 383 285 C 383 283.058, 382.167 279.901, 381.148 277.984 C 380.130 276.068, 377.813 273.488, 376.001 272.250 L 372.704 270 314.602 270.004 C 258.389 270.007, 256.394 270.072, 253.241 271.995 M 201.500 348.439 C 199.850 349.187, 190.422 357.927, 180.549 367.860 L 162.599 385.922 156.973 380.556 C 153.711 377.444, 149.825 374.770, 147.723 374.189 C 145.543 373.587, 142.584 373.529, 140.299 374.042 C 137.844 374.594, 135.173 376.315, 132.750 378.909 C 129.434 382.458, 129 383.511, 129 388.011 C 129 390.810, 129.637 394.314, 130.416 395.800 C 131.194 397.285, 137.157 403.746, 143.666 410.158 C 153.347 419.695, 156.200 421.947, 159.346 422.537 C 161.657 422.971, 164.851 422.766, 167.346 422.023 C 170.742 421.013, 175.676 416.654, 194.376 398.144 C 206.958 385.690, 218.546 373.499, 220.126 371.054 C 222.092 368.013, 223 365.323, 223 362.539 C 223 360.300, 222.166 356.901, 221.146 354.984 C 220.126 353.068, 217.539 350.495, 215.396 349.266 C 213.253 348.038, 209.925 347.043, 208 347.056 C 206.075 347.068, 203.150 347.690, 201.500 348.439 M 253.241 371.995 C 251.448 373.088, 249.088 375.448, 247.995 377.241 C 246.789 379.218, 246.007 382.270, 246.007 385 C 246.007 387.730, 246.789 390.782, 247.995 392.759 C 249.088 394.552, 251.448 396.912, 253.241 398.005 C 256.394 399.928, 258.385 399.993, 314.500 399.993 C 370.615 399.993, 372.606 399.928, 375.759 398.005 C 377.552 396.912, 379.912 394.552, 381.005 392.759 C 382.211 390.782, 382.993 387.730, 382.993 385 C 382.993 382.270, 382.211 379.218, 381.005 377.241 C 379.912 375.448, 377.552 373.088, 375.759 371.995 C 372.606 370.072, 370.615 370.007, 314.500 370.007 C 258.385 370.007, 256.394 370.072, 253.241 371.995" stroke="none" fill="#f7f7f7" fill-rule="evenodd"/></svg>