<?xml version="1.0" standalone="no"?>
<!DOCTYPE svg PUBLIC "-//W3C//DTD SVG 20010904//EN"
 "http://www.w3.org/TR/2001/REC-SVG-20010904/DTD/svg10.dtd">
<svg version="1.0" xmlns="http://www.w3.org/2000/svg"
 width="1280.000000pt" height="720.000000pt" viewBox="0 0 1280.000000 720.000000"
 preserveAspectRatio="xMidYMid meet">

<g transform="translate(0.000000,720.000000) scale(0.100000,-0.100000)"
fill="#000000" stroke="none">
<path d="M0 3600 l0 -3600 6400 0 6400 0 0 3600 0 3600 -6400 0 -6400 0 0
-3600z m12790 0 l0 -3590 -6390 0 -6390 0 0 3590 0 3590 6390 0 6390 0 0
-3590z"/>
<path d="M6168 7013 c6 -2 18 -2 25 0 6 3 1 5 -13 5 -14 0 -19 -2 -12 -5z"/>
<path d="M7788 6973 c7 -3 16 -2 19 1 4 3 -2 6 -13 5 -11 0 -14 -3 -6 -6z"/>
<path d="M4495 6890 c-3 -5 -2 -10 4 -10 5 0 13 5 16 10 3 6 2 10 -4 10 -5 0
-13 -4 -16 -10z"/>
<path d="M7757 6829 c7 -7 15 -10 18 -7 3 3 -2 9 -12 12 -14 6 -15 5 -6 -5z"/>
<path d="M4245 6810 c-13 -6 -15 -9 -5 -9 8 0 22 4 30 9 18 12 2 12 -25 0z"/>
<path d="M4525 6750 c-3 -6 1 -7 9 -4 18 7 21 14 7 14 -6 0 -13 -4 -16 -10z"/>
<path d="M6410 6752 c0 -5 18 -17 40 -27 22 -10 45 -24 51 -32 7 -7 58 -140
114 -294 58 -161 108 -285 117 -290 24 -13 39 -3 88 61 139 180 334 410 367
433 21 14 57 30 81 37 23 6 42 14 42 18 0 7 -293 43 -337 42 -28 0 -10 -16 33
-29 108 -32 102 -55 -80 -298 -50 -67 -95 -121 -100 -119 -10 2 -136 370 -136
397 0 26 23 39 79 46 28 3 51 10 51 14 0 5 -6 9 -12 9 -7 0 -87 9 -178 20
-183 22 -220 24 -220 12z"/>
<path d="M5873 6733 c-96 -4 -121 -16 -55 -27 91 -16 94 -17 108 -52 16 -38
39 -331 31 -407 -5 -57 -23 -73 -89 -82 -27 -4 -48 -12 -48 -18 0 -9 45 -10
172 -6 95 4 197 7 226 8 28 1 52 5 52 9 0 5 -27 14 -61 20 -92 17 -92 18 -109
266 -16 232 -9 256 88 272 23 4 45 11 48 15 5 8 -154 9 -363 2z"/>
<path d="M8148 6713 c7 -3 16 -2 19 1 4 3 -2 6 -13 5 -11 0 -14 -3 -6 -6z"/>
<path d="M5360 6679 c-69 -16 -136 -31 -149 -34 -42 -10 -12 -20 66 -20 73 -1
78 -2 102 -32 27 -33 154 -323 146 -331 -3 -3 -35 9 -71 27 -36 17 -126 59
-201 92 -74 33 -194 88 -267 122 l-131 63 -122 -29 c-68 -16 -123 -33 -123
-38 0 -5 23 -9 50 -9 64 0 104 -20 133 -68 41 -65 149 -347 145 -378 -3 -27
-15 -38 -84 -80 -11 -7 -17 -14 -13 -18 4 -4 209 38 332 69 49 13 28 25 -43
25 -98 0 -113 16 -195 209 -36 84 -64 156 -61 159 3 3 36 -9 73 -26 38 -16
120 -53 183 -80 224 -97 366 -160 422 -187 47 -22 60 -25 78 -15 12 6 19 17
17 23 -110 273 -180 458 -184 487 -4 30 -1 41 18 59 12 11 29 21 36 21 7 0 13
5 13 10 0 15 -32 11 -170 -21z"/>
<path d="M4240 6649 c0 -5 5 -7 10 -4 6 3 10 8 10 11 0 2 -4 4 -10 4 -5 0 -10
-5 -10 -11z"/>
<path d="M7540 6602 c0 -4 16 -16 35 -26 60 -33 68 -47 52 -94 -23 -65 -179
-342 -214 -380 l-33 -35 -70 7 c-38 4 -70 3 -70 -1 0 -5 33 -19 73 -31 39 -13
153 -48 252 -78 99 -31 213 -66 252 -79 l73 -23 46 51 c102 113 112 164 18 92
-67 -51 -141 -70 -216 -55 -104 20 -168 57 -168 95 0 19 71 167 90 189 8 8
121 -25 175 -52 38 -19 45 -29 45 -69 0 -50 23 -41 59 25 18 31 44 76 58 100
28 47 19 53 -34 21 -43 -27 -93 -27 -191 2 -42 12 -79 24 -81 25 -2 2 98 189
114 211 3 5 160 -49 195 -67 20 -10 42 -26 50 -35 13 -15 18 -58 9 -84 -2 -7
1 -15 8 -18 14 -5 106 118 95 128 -4 4 -23 12 -42 17 -19 5 -153 46 -296 91
-266 82 -284 87 -284 73z"/>
<path d="M8740 6476 c0 -2 7 -7 16 -10 8 -3 12 -2 9 4 -6 10 -25 14 -25 6z"/>
<path d="M9127 6449 c7 -7 15 -10 18 -7 3 3 -2 9 -12 12 -14 6 -15 5 -6 -5z"/>
<path d="M3427 6436 c-16 -12 -16 -14 -2 -20 9 -3 13 -2 10 3 -3 6 3 14 12 20
10 6 14 10 8 10 -5 0 -18 -6 -28 -13z"/>
<path d="M4188 6339 c-155 -78 -187 -114 -60 -68 13 5 40 9 60 9 34 0 46 -9
165 -131 70 -73 137 -149 148 -170 29 -58 25 -111 -10 -147 -46 -45 -135 -83
-212 -89 -107 -9 -152 18 -290 175 -134 152 -145 171 -125 210 8 15 26 34 40
42 27 14 35 30 15 30 -21 0 -378 -185 -371 -192 4 -4 35 0 70 9 l62 16 40 -28
c22 -15 80 -73 129 -129 133 -152 160 -177 219 -204 46 -21 65 -24 121 -20
128 10 279 80 343 160 39 50 49 118 23 169 -10 19 -64 90 -119 159 -139 171
-140 173 -121 209 8 17 19 33 25 36 14 9 12 25 -2 24 -7 0 -75 -31 -150 -70z"/>
<path d="M3328 6373 c7 -3 16 -2 19 1 4 3 -2 6 -13 5 -11 0 -14 -3 -6 -6z"/>
<path d="M3590 6350 c-13 -8 -13 -10 2 -10 9 0 20 5 23 10 8 13 -5 13 -25 0z"/>
<path d="M8410 6323 c0 -4 16 -24 36 -44 31 -31 35 -42 30 -65 -9 -35 -315
-346 -362 -369 -31 -15 -39 -15 -94 1 -33 9 -63 14 -67 10 -8 -8 -24 2 186
-115 101 -56 191 -101 199 -99 10 2 3 11 -20 28 -20 13 -44 37 -53 52 -16 27
-15 30 2 57 21 34 141 161 152 161 4 0 20 -13 36 -30 l28 -30 -12 -109 c-19
-169 -4 -204 125 -290 91 -62 144 -71 93 -18 -11 12 -33 45 -47 72 -24 45 -27
60 -27 160 0 61 4 123 8 138 7 27 10 28 47 22 67 -11 149 12 192 55 66 66 47
128 -60 202 -41 28 -379 218 -388 218 -2 0 -4 -3 -4 -7z m277 -183 c45 -33 77
-90 68 -120 -10 -30 -71 -78 -116 -90 -23 -6 -60 -8 -83 -4 -45 7 -116 33
-116 42 0 7 193 202 200 202 3 0 24 -14 47 -30z"/>
<path d="M3380 6219 c-22 -18 -22 -19 -3 -10 12 6 25 16 28 21 9 15 3 12 -25
-11z"/>
<path d="M9510 6210 c0 -5 5 -10 11 -10 5 0 7 5 4 10 -3 6 -8 10 -11 10 -2 0
-4 -4 -4 -10z"/>
<path d="M9315 6145 c11 -9 29 -21 40 -26 l20 -10 -20 16 c-11 9 -29 21 -40
26 l-20 10 20 -16z"/>
<path d="M9470 6036 c0 -2 7 -7 16 -10 8 -3 12 -2 9 4 -6 10 -25 14 -25 6z"/>
<path d="M2779 5983 l-24 -28 28 24 c25 23 32 31 24 31 -2 0 -14 -12 -28 -27z"/>
<path d="M9850 5945 c19 -19 36 -35 39 -35 3 0 -10 16 -29 35 -19 19 -36 35
-39 35 -3 0 10 -16 29 -35z"/>
<path d="M9595 5940 c3 -5 8 -10 11 -10 2 0 4 5 4 10 0 6 -5 10 -11 10 -5 0
-7 -4 -4 -10z"/>
<path d="M5916 5855 c-93 -7 -190 -18 -215 -24 -25 -6 -75 -15 -111 -21 -187
-31 -459 -105 -645 -177 -425 -163 -751 -366 -1044 -648 -104 -100 -286 -317
-317 -378 -9 -18 -20 -34 -24 -37 -14 -10 -127 -236 -163 -325 -48 -121 -85
-255 -103 -378 -27 -174 -18 -499 16 -612 4 -16 18 -68 30 -115 12 -47 30
-103 41 -126 10 -23 19 -46 19 -53 0 -20 108 -236 152 -302 23 -35 47 -71 53
-81 95 -153 314 -384 511 -538 90 -70 237 -170 294 -200 14 -7 27 -16 30 -19
11 -13 321 -171 336 -171 4 0 37 -13 73 -29 104 -46 174 -73 206 -82 17 -4 93
-26 170 -49 167 -49 230 -62 440 -96 260 -41 346 -47 640 -48 234 0 309 4 455
23 217 28 403 63 540 102 58 17 128 37 155 44 56 16 254 88 300 109 17 8 54
24 83 35 52 21 230 111 327 166 44 24 219 142 249 166 6 5 49 39 96 76 105 83
295 272 377 375 309 385 458 837 424 1280 -7 79 -16 159 -21 178 -5 19 -11 53
-14 75 -10 73 -45 184 -103 325 -34 82 -100 210 -114 220 -3 3 -14 21 -24 40
-42 83 -193 275 -306 390 -73 74 -246 225 -304 266 -17 11 -61 42 -98 68 -398
278 -961 484 -1517 556 -214 28 -648 35 -894 15z m375 -407 c1 -7 2 -26 3 -43
2 -16 6 -39 11 -50 11 -25 51 -65 65 -65 5 0 10 -4 10 -9 0 -5 13 -14 30 -19
33 -12 32 -42 -1 -42 -16 0 -19 -8 -19 -53 l0 -52 78 -18 c185 -42 360 -169
478 -347 53 -80 101 -206 119 -312 l6 -38 -224 0 -224 0 -12 113 c-25 245
-101 451 -204 559 -41 42 -57 53 -72 48 -19 -7 -19 -7 2 -14 12 -4 36 -23 52
-42 89 -101 158 -324 177 -576 l7 -88 -293 0 -293 0 7 83 c22 276 100 514 197
602 22 19 35 35 29 35 -5 0 -10 21 -10 47 0 59 -8 53 -11 -8 -2 -40 -9 -53
-50 -94 -56 -56 -97 -130 -133 -237 -31 -93 -62 -246 -71 -350 l-7 -78 -224 0
c-123 0 -224 4 -224 9 0 5 11 52 25 106 64 252 244 457 485 554 41 16 99 33
128 37 38 5 50 10 43 17 -6 6 -11 30 -11 53 0 34 -4 44 -21 49 -27 9 -19 29
14 33 15 2 27 10 27 18 0 8 6 14 13 14 7 0 19 9 27 20 8 11 20 20 26 20 7 0
10 8 7 20 -3 11 -1 20 5 20 5 0 9 15 8 33 -3 37 2 57 15 57 5 0 10 -6 10 -12z
m-441 -412 c0 -3 -30 -25 -67 -49 -189 -126 -322 -330 -358 -549 l-6 -38 -100
0 c-91 0 -100 2 -95 18 3 9 10 37 16 62 26 97 94 210 182 299 96 99 185 156
348 227 86 38 80 35 80 30z m996 -56 c125 -59 205 -114 295 -204 98 -97 169
-224 192 -343 l7 -33 -99 0 -99 0 -7 48 c-14 95 -86 264 -147 342 -47 61 -158
165 -210 197 -32 20 -58 37 -58 39 0 11 31 -1 126 -46z m-2657 -332 c-9 -29
-30 -60 -67 -96 -48 -47 -100 -138 -126 -218 -6 -21 -6 -21 37 -7 32 10 60 12
101 6 l58 -8 -54 -27 c-37 -19 -71 -28 -111 -29 l-57 -2 -30 -94 c-17 -51 -30
-98 -30 -103 0 -6 18 -1 41 10 27 15 64 22 110 24 l70 2 -28 -23 c-41 -35
-123 -72 -168 -75 -36 -3 -40 -6 -47 -38 -4 -19 -10 -73 -14 -120 l-7 -85 29
34 c30 36 114 81 152 81 12 0 34 8 49 17 24 16 23 13 -11 -34 -50 -70 -94
-107 -152 -128 -77 -29 -77 -27 -64 -145 5 -57 12 -105 14 -108 3 -2 11 9 19
25 20 36 83 96 123 117 18 8 46 29 63 46 35 35 38 33 15 -12 -8 -16 -21 -49
-28 -72 -19 -61 -58 -118 -119 -171 l-55 -47 24 -78 c13 -43 30 -93 38 -111
l13 -32 18 54 c15 45 34 70 111 145 62 61 89 82 82 65 -5 -14 -14 -53 -19 -86
-13 -83 -50 -154 -109 -209 l-50 -47 16 -32 c30 -60 109 -187 116 -187 5 0 8
15 8 33 0 65 30 127 95 196 34 36 70 80 79 96 l17 30 -6 -35 c-3 -19 -10 -72
-15 -116 -5 -45 -18 -101 -29 -124 -29 -60 -93 -142 -104 -131 -5 5 -4 18 2
30 14 26 0 28 -16 2 -10 -16 -6 -26 25 -68 49 -66 146 -182 152 -182 3 -1 6
18 7 40 4 63 48 148 102 199 27 25 59 63 71 85 20 37 21 38 16 10 -3 -16 -10
-70 -15 -118 -11 -99 -39 -168 -95 -233 l-34 -39 51 -52 c28 -29 48 -56 44
-60 -4 -4 -36 21 -70 55 -56 56 -67 62 -102 61 -41 -1 -40 -3 9 -14 22 -5 26
-9 17 -18 -7 -7 -49 -12 -114 -12 -92 0 -108 3 -162 29 -33 16 -82 37 -110 47
l-50 18 56 0 c30 1 77 8 103 17 59 20 166 15 215 -11 l35 -17 -38 43 c-20 24
-58 69 -83 100 -46 56 -47 56 -82 47 -20 -6 -74 -8 -121 -6 -66 3 -98 10 -145
32 -33 15 -81 34 -107 42 -27 8 -48 16 -48 18 0 2 20 1 44 -1 27 -3 63 1 94
11 58 20 174 23 215 7 45 -17 50 -13 24 22 -13 17 -46 71 -73 120 -36 66 -53
87 -68 87 -19 -1 -19 -2 4 -15 23 -12 23 -14 6 -21 -47 -18 -213 37 -266 88
-14 13 -45 37 -70 52 -25 15 -36 25 -25 20 11 -4 72 -10 135 -13 103 -5 120
-9 164 -35 27 -16 46 -22 43 -15 -3 8 -22 65 -43 127 -30 95 -40 115 -62 123
-33 13 -38 6 -7 -11 33 -18 32 -32 -2 -24 -115 26 -138 38 -238 132 -76 70
-90 89 -41 57 13 -9 57 -19 98 -24 82 -9 127 -28 177 -75 l34 -31 -7 30 c-3
17 -9 87 -13 157 -4 89 -10 131 -19 139 -17 14 -19 -2 -2 -19 25 -25 -14 -12
-57 19 -40 29 -95 96 -95 116 0 5 -9 26 -21 47 l-20 38 28 -19 c15 -10 47 -27
70 -37 41 -18 81 -54 100 -89 7 -14 14 6 27 85 9 57 19 117 22 133 4 22 3 26
-5 15 -24 -34 -84 60 -94 148 l-6 53 43 -36 c24 -19 51 -53 61 -75 l19 -41 33
93 c47 133 46 126 26 124 -27 -2 -52 60 -52 129 l-1 60 21 -25 c39 -48 52 -71
59 -103 7 -31 9 -27 64 88 88 183 91 188 132 217 22 14 40 25 42 23 2 -2 -2
-23 -9 -47z m4312 -41 c10 -18 19 -39 19 -47 0 -8 23 -61 52 -118 l52 -102 13
42 c7 24 27 59 43 78 l30 34 0 -59 c0 -70 -25 -131 -53 -128 -10 0 -16 -4 -14
-10 2 -7 19 -54 38 -104 18 -51 36 -93 39 -93 3 0 13 17 22 38 10 20 36 52 59
71 l41 34 -7 -54 c-12 -86 -66 -172 -96 -153 -9 5 -10 2 -6 -11 10 -24 37
-182 37 -213 0 -23 2 -22 29 15 20 27 49 50 88 69 32 15 66 34 75 42 14 11 11
0 -10 -49 -29 -69 -98 -145 -144 -161 -16 -6 -28 -17 -28 -26 0 -36 -21 -238
-26 -257 -5 -16 1 -13 27 12 45 43 111 70 186 76 34 4 77 14 94 23 26 13 19 3
-32 -48 -95 -94 -149 -126 -248 -142 l-34 -6 19 21 c18 21 18 21 0 18 -14 -3
-28 -32 -56 -114 -20 -60 -40 -118 -45 -127 -9 -23 0 -23 33 0 45 31 63 36
172 42 58 3 114 10 125 15 18 8 19 7 6 -8 -7 -9 -18 -17 -23 -17 -6 0 -31 -17
-57 -39 -25 -21 -64 -48 -87 -59 -54 -27 -172 -48 -187 -33 -7 7 -4 13 14 20
l24 10 -27 0 c-16 1 -28 -2 -28 -7 0 -4 -29 -56 -65 -116 -36 -60 -63 -111
-61 -113 2 -2 15 1 30 7 41 15 175 12 226 -6 29 -10 63 -14 95 -11 l50 5 -65
-22 c-36 -12 -85 -33 -110 -46 -35 -18 -65 -25 -135 -28 -50 -2 -107 0 -127 6
-33 9 -38 8 -52 -13 -8 -12 -42 -55 -76 -94 -34 -39 -60 -71 -58 -71 1 0 21 7
43 15 53 19 135 19 202 -1 35 -10 78 -15 114 -12 33 2 59 3 59 2 0 -1 -24 -10
-54 -18 -30 -9 -77 -27 -104 -41 -68 -34 -144 -49 -219 -42 -69 7 -110 22 -83
31 8 3 26 7 40 9 16 3 11 5 -15 6 -36 1 -45 -5 -99 -59 -56 -57 -76 -70 -76
-52 0 4 22 30 49 56 l50 49 -34 41 c-58 71 -86 139 -96 234 -5 48 -12 101 -15
117 -5 28 -4 27 19 -11 13 -22 45 -60 70 -83 54 -50 94 -125 103 -194 l7 -50
29 34 c16 19 58 71 94 116 64 81 65 83 48 108 -21 32 -26 32 -13 -1 28 -76
-49 -6 -93 84 -24 48 -33 84 -39 150 -4 48 -11 97 -15 110 -10 33 4 26 20 -10
7 -18 37 -55 65 -82 62 -58 80 -89 101 -176 l16 -65 41 70 c23 39 54 96 69
128 27 55 28 58 10 75 -18 16 -18 16 -6 -6 20 -40 2 -38 -41 4 -52 50 -89 122
-105 204 -7 36 -16 79 -19 95 l-6 30 15 -25 c8 -14 44 -51 80 -83 68 -60 91
-93 111 -160 l11 -39 31 94 c48 144 49 137 -8 181 -59 45 -92 94 -123 178 -13
35 -27 73 -31 84 -6 15 2 11 32 -15 22 -19 61 -47 85 -61 24 -14 58 -47 75
-72 29 -44 31 -46 37 -23 3 13 9 69 12 126 6 82 4 104 -7 111 -23 15 -34 10
-13 -6 18 -14 18 -14 -6 -15 -34 0 -123 52 -151 90 -13 17 -37 47 -54 67 l-30
36 32 -17 c18 -9 40 -16 50 -16 32 -1 107 -40 145 -77 l37 -36 -4 34 c-3 19
-10 69 -15 113 -6 43 -13 82 -16 87 -3 5 -22 9 -42 9 -44 0 -103 26 -154 67
l-37 30 73 -2 c56 -1 81 -6 109 -24 34 -21 37 -21 37 -4 -1 10 -13 56 -28 102
l-27 84 -57 3 c-38 2 -75 12 -110 31 l-53 27 59 9 c54 8 71 5 128 -18 16 -6
16 -4 -1 32 -10 21 -33 70 -50 109 -21 45 -41 76 -56 82 -38 18 -95 109 -95
154 0 17 91 -54 111 -85z m-871 -235 c0 -5 -13 -20 -28 -35 l-28 -27 -1284 0
-1284 0 -23 22 c-53 50 -116 48 1312 48 734 0 1335 -3 1335 -8z m-42 -120 c-2
-20 -7 -36 -11 -34 -4 1 -583 2 -1287 2 l-1280 0 0 34 c0 19 4 36 10 38 5 2
586 2 1291 0 l1280 -2 -3 -38z m-30 -48 c47 -13 18 -24 -63 -24 l-85 0 0 -155
0 -155 -76 0 c-72 0 -75 1 -73 23 6 47 -76 129 -141 142 -11 2 -23 6 -28 8 -4
3 -25 8 -46 11 -22 4 -45 11 -52 17 -8 7 -19 7 -31 0 -10 -5 -48 -17 -85 -25
-105 -25 -178 -87 -178 -151 0 -24 -3 -25 -65 -25 l-65 0 0 29 c0 17 -5 33
-11 36 -5 4 -14 17 -19 30 -13 35 -97 74 -202 95 -58 11 -169 -10 -240 -47
-48 -25 -92 -81 -93 -118 0 -18 -8 -20 -62 -23 -61 -3 -63 -2 -63 22 0 33 -39
92 -70 106 -14 6 -38 18 -54 27 -15 8 -47 18 -70 20 -22 3 -53 12 -68 19 -15
8 -29 10 -32 5 -3 -5 -36 -14 -73 -21 -38 -7 -79 -20 -93 -29 -14 -9 -34 -21
-44 -27 -11 -6 -24 -19 -30 -29 -6 -11 -17 -25 -25 -31 -9 -7 -12 -20 -7 -37
l6 -27 -70 0 -69 0 -3 153 -3 152 -87 3 c-81 3 -99 8 -81 25 8 8 2520 9 2551
1z m-2219 -353 c2 -1 -2 -8 -9 -16 -24 -29 -170 -17 -170 15 0 4 164 5 179 1z
m691 -1 c0 -20 -31 -30 -92 -30 -37 0 -68 2 -68 4 0 2 -3 11 -6 20 -5 13 6 15
80 14 47 -1 86 -4 86 -8z m694 1 c5 -1 3 -8 -4 -16 -24 -29 -170 -17 -170 15
0 4 136 5 174 1z m696 2 c0 -1 -3 -8 -6 -17 -8 -21 -130 -22 -156 -2 -10 7
-16 15 -14 17 4 4 176 6 176 2z m-2110 -564 c0 -333 4 -517 10 -530 6 -10 18
-20 28 -21 9 -1 -30 -4 -88 -7 -111 -6 -137 -3 -103 12 12 5 24 19 27 31 3 11
6 247 6 524 l0 502 60 0 60 0 0 -511z m699 -6 c1 -507 1 -518 21 -535 11 -9
20 -18 20 -20 0 -1 -47 -3 -105 -3 -100 0 -128 6 -85 20 12 4 22 18 25 38 3
18 5 254 3 525 l-3 492 62 0 61 0 1 -517z m691 3 c0 -541 -1 -533 42 -549 30
-10 -4 -13 -107 -7 -60 4 -102 7 -93 8 10 1 22 11 28 21 6 13 10 197 10 530
l0 511 60 0 60 0 0 -514z m700 -5 l0 -519 23 -15 c20 -14 15 -15 -81 -19 -100
-3 -135 3 -92 17 12 4 20 15 20 28 0 12 0 248 1 525 l2 502 63 0 64 0 0 -519z
m210 -621 l0 -40 -1315 0 -1315 0 0 40 0 40 1315 0 1315 0 0 -40z m80 -120 l0
-40 -1393 0 -1394 0 -1 40 -2 40 1395 0 1395 0 0 -40z m68 -127 l3 -53 -1465
0 -1466 0 0 48 c0 27 3 52 7 55 3 4 662 6 1462 5 l1456 -3 3 -52z m-2188 -234
c22 -22 46 -39 54 -39 7 0 19 -7 26 -16 11 -13 10 -16 -8 -21 -20 -5 -22 -12
-22 -74 0 -68 -3 -75 -34 -63 -12 5 -16 21 -16 70 l0 64 -36 0 -36 0 4 -70 c2
-58 0 -70 -12 -70 -25 0 -40 21 -40 57 0 30 -3 33 -30 33 -39 0 -49 -24 -26
-63 24 -43 9 -48 -25 -7 -32 38 -38 84 -13 94 9 3 33 6 55 6 21 0 39 5 39 10
0 6 -34 10 -82 10 l-83 0 1 -70 c1 -39 -2 -72 -6 -75 -4 -2 -16 4 -27 14 -16
15 -30 18 -66 14 -36 -4 -52 -1 -76 16 -36 26 -40 41 -11 41 27 0 25 6 -7 35
-27 23 -28 23 -9 44 11 12 31 21 46 21 31 0 80 -34 80 -55 0 -17 -50 -65 -68
-65 -7 0 -11 -4 -7 -9 7 -13 62 4 86 25 22 20 20 54 -3 72 -10 7 -18 17 -18
23 0 5 76 9 185 9 102 0 185 4 185 9 0 13 -47 41 -69 41 -22 0 -35 15 -27 29
11 17 57 -2 96 -40z m1309 15 c39 -19 71 -40 71 -45 0 -5 169 -9 424 -9 364 0
425 -2 436 -15 12 -15 11 -16 -12 -19 -9 -1 -14 -23 -16 -66 -3 -87 -6 -94
-32 -78 -17 11 -20 23 -20 75 l0 63 -36 0 -35 0 5 -70 c5 -63 4 -70 -13 -70
-23 0 -45 25 -38 44 4 11 -6 15 -39 18 -58 4 -74 -12 -39 -40 28 -22 32 -32
12 -32 -19 0 -97 75 -97 94 0 9 8 16 20 16 13 0 20 7 20 20 0 17 -7 20 -45 20
l-45 0 0 -76 0 -76 -22 14 c-19 13 -24 26 -26 77 l-3 61 -32 0 -32 0 2 -70 c2
-62 0 -70 -16 -70 -27 0 -44 26 -39 60 4 28 2 30 -26 30 -23 0 -27 -3 -18 -12
18 -18 14 -45 -8 -61 -18 -13 -19 -16 -5 -27 8 -7 15 -16 15 -21 0 -17 -25 -9
-38 11 -7 12 -24 25 -37 30 -38 15 -33 42 8 38 26 -2 32 0 32 17 0 12 -12 26
-30 35 l-30 15 65 3 c109 5 95 22 -18 22 l-102 0 0 -75 c0 -73 0 -74 -22 -66
-17 6 -24 18 -28 47 -3 26 -11 40 -21 42 -13 2 -17 -5 -15 -30 1 -28 -3 -34
-24 -37 -31 -4 -78 22 -108 60 -30 37 -6 40 28 4 24 -25 54 -33 64 -16 3 5 -1
14 -9 21 -26 22 -16 30 35 30 28 0 50 5 50 10 0 6 -45 10 -116 10 l-115 0 1
-57 c3 -91 2 -92 -20 -86 -24 6 -33 37 -28 98 3 41 1 45 -19 45 -13 0 -23 2
-23 4 0 2 -3 11 -6 20 -5 12 0 16 18 16 22 0 24 4 20 30 -4 26 0 32 29 45 50
21 69 19 148 -21z m-2309 -156 c0 -54 -4 -98 -9 -98 -37 0 -41 11 -41 116 l0
104 25 -12 c24 -11 25 -14 25 -110z m71 112 c17 -10 19 -22 19 -110 0 -55 -4
-100 -9 -100 -37 0 -41 11 -41 116 0 57 3 104 6 104 3 0 14 -5 25 -10z m3310
0 c17 -10 19 -22 19 -110 0 -55 -4 -100 -9 -100 -37 0 -41 11 -41 116 0 57 3
104 6 104 3 0 14 -5 25 -10z m121 -110 c0 -96 -8 -114 -37 -90 -11 9 -15 36
-15 105 0 50 3 95 7 98 3 4 15 1 26 -6 16 -11 19 -25 19 -107z m-3165 68 c17
-16 20 -25 12 -39 -8 -16 -6 -19 10 -19 33 0 51 11 51 31 0 10 -7 19 -15 19
-8 0 -19 9 -25 20 -11 20 -9 21 52 18 50 -2 63 -6 66 -20 2 -12 -3 -18 -15
-18 -16 0 -18 -8 -15 -71 4 -69 3 -71 -19 -67 -15 2 -25 12 -29 28 -4 18 -13
26 -34 28 -18 2 -26 0 -22 -7 8 -13 -29 -51 -49 -51 -26 0 -79 26 -99 49 -27
30 -13 37 22 11 35 -26 85 -24 90 4 3 16 0 18 -24 12 -18 -5 -30 -3 -35 6 -14
22 -10 27 24 30 20 2 32 8 32 18 0 11 -12 15 -47 15 -49 0 -64 13 -31 27 27
11 74 0 100 -24z m1611 20 c18 -18 15 -28 -8 -28 -18 0 -20 -7 -20 -71 0 -67
-1 -70 -22 -67 -18 2 -24 11 -26 36 -3 25 -8 32 -24 32 -11 0 -26 -7 -33 -16
-9 -14 -16 -14 -33 -5 -12 6 -22 21 -22 31 0 18 7 20 55 20 48 0 55 2 55 20 0
18 -7 20 -81 20 l-80 0 2 -67 c3 -70 -7 -87 -36 -63 -10 8 -15 32 -15 72 l0
59 -32 -3 -33 -3 0 -70 c0 -57 -3 -69 -15 -67 -22 5 -41 23 -34 34 3 5 3 20 0
34 -5 18 -13 24 -33 24 -21 0 -24 -3 -15 -12 19 -19 14 -56 -9 -63 -19 -6 -19
-8 -5 -24 19 -21 20 -31 3 -31 -7 0 -18 9 -24 19 -7 11 -24 26 -39 33 -34 16
-28 33 11 33 43 0 45 29 3 52 l-33 18 65 3 c100 5 99 22 -1 22 -79 0 -109 9
-109 32 0 14 574 10 588 -4z m-754 -27 c11 -17 -6 -41 -29 -41 -31 0 -54 28
-34 41 18 11 56 12 63 0z m-4 -106 c10 -12 10 -18 0 -30 -16 -19 -31 -19 -55
-1 -16 12 -17 16 -6 30 17 20 45 21 61 1z m10 -256 c0 -5 -22 -9 -50 -9 -43 0
-50 -3 -50 -20 0 -14 7 -20 23 -20 33 0 67 -11 67 -21 0 -5 -20 -9 -45 -9 -40
0 -45 -3 -45 -22 0 -21 4 -23 50 -20 41 3 50 1 50 -12 0 -13 -13 -16 -70 -16
l-70 0 0 79 c0 66 3 80 16 83 31 6 124 -4 124 -13z m688 12 c7 -1 18 -12 24
-26 11 -23 8 -30 -32 -70 l-44 -45 42 0 c23 0 42 -4 42 -10 0 -6 -28 -10 -65
-10 -80 0 -82 10 -18 66 33 29 45 45 40 57 -8 22 -36 22 -53 0 -10 -14 -15
-15 -24 -6 -7 6 -9 16 -5 23 9 15 45 28 65 24 8 -1 21 -3 28 -3z m314 -81 c-3
-61 -7 -80 -18 -80 -11 0 -14 15 -14 65 0 64 -6 75 -27 54 -8 -8 -13 -8 -17 0
-8 12 51 51 68 45 7 -3 10 -32 8 -84z m-602 0 l0 -80 -49 0 c-40 0 -53 4 -65
22 -22 30 -20 54 5 79 16 16 29 20 50 15 26 -5 29 -3 29 19 0 16 6 25 15 25
12 0 15 -16 15 -80z m474 64 c22 -21 21 -102 -1 -126 -18 -20 -64 -24 -94 -8
-15 9 -19 22 -19 68 0 32 5 63 12 70 17 17 84 15 102 -4z m316 6 c0 -5 -20
-10 -45 -10 -33 0 -45 -4 -45 -15 0 -10 10 -15 29 -15 38 0 61 -23 61 -60 0
-33 -23 -50 -69 -50 -35 0 -68 27 -52 43 7 7 17 5 30 -7 28 -25 53 -14 49 21
-3 29 -11 31 -55 17 -22 -6 -23 -3 -23 40 l0 46 60 0 c33 0 60 -4 60 -10z
m-970 -15 c0 -8 7 -15 15 -15 8 0 15 -7 15 -15 0 -8 -7 -15 -15 -15 -10 0 -15
-10 -15 -30 0 -18 6 -33 15 -36 8 -4 15 -10 15 -15 0 -14 -46 -11 -57 4 -15
18 -23 98 -12 119 12 22 39 24 39 3z m-82 -32 c2 -9 -9 -13 -38 -13 -25 0 -39
-4 -35 -10 3 -5 17 -10 30 -10 36 0 55 -10 55 -30 0 -28 -25 -41 -71 -38 -56
4 -66 28 -10 25 51 -3 54 16 4 23 -72 9 -47 74 26 68 19 -2 36 -9 39 -15z
m342 -88 c0 -8 -9 -15 -20 -15 -11 0 -20 7 -20 15 0 8 9 15 20 15 11 0 20 -7
20 -15z"/>
<path d="M6257 5214 c-4 -4 -7 -26 -7 -49 0 -40 1 -41 28 -37 25 3 28 7 26 45
-1 33 -5 43 -21 45 -10 2 -22 0 -26 -4z"/>
<path d="M3869 3733 c-13 -16 -12 -17 4 -4 9 7 17 15 17 17 0 8 -8 3 -21 -13z"/>
<path d="M3905 3420 c-10 -11 -14 -20 -9 -20 5 0 15 9 22 20 7 11 11 20 9 20
-2 0 -12 -9 -22 -20z"/>
<path d="M4010 3115 c-7 -9 -10 -18 -7 -21 3 -3 10 4 17 15 13 25 8 27 -10 6z"/>
<path d="M4090 2791 c30 -11 66 -14 57 -5 -3 3 -23 8 -44 10 -31 3 -34 2 -13
-5z"/>
<path d="M4390 2570 c-6 -12 -9 -24 -7 -27 3 -2 11 5 17 17 6 12 9 24 7 27 -3
2 -11 -5 -17 -17z"/>
<path d="M8775 3740 c-3 -5 -2 -10 4 -10 5 0 13 5 16 10 3 6 2 10 -4 10 -5 0
-13 -4 -16 -10z"/>
<path d="M8676 3415 c4 -8 11 -15 16 -15 6 0 5 6 -2 15 -7 8 -14 15 -16 15 -2
0 -1 -7 2 -15z"/>
<path d="M8450 2790 c0 -5 10 -10 23 -10 18 0 19 2 7 10 -19 13 -30 13 -30 0z"/>
<path d="M8180 2594 c1 -18 27 -56 33 -48 3 5 -3 20 -14 33 -10 13 -19 19 -19
15z"/>
<path d="M5123 2094 c-3 -8 0 -21 6 -27 10 -9 16 -8 27 7 8 11 14 23 14 28 0
15 -41 8 -47 -8z"/>
<path d="M6751 2172 c-6 -10 -7 -22 -4 -26 3 -3 47 -6 97 -6 l91 0 -34 22
c-19 12 -56 23 -86 26 -45 4 -55 1 -64 -16z"/>
<path d="M7540 2074 c0 -23 3 -25 33 -22 24 2 33 8 35 26 3 19 -1 22 -32 22
-32 0 -36 -3 -36 -26z"/>
<path d="M6083 1664 c-7 -18 7 -46 25 -52 14 -4 32 37 25 56 -7 18 -43 15 -50
-4z"/>
<path d="M6573 1718 c-5 -7 -10 -29 -12 -49 -3 -40 17 -63 43 -53 23 9 19 107
-5 112 -9 1 -20 -3 -26 -10z"/>
<path d="M9717 5839 c7 -7 15 -10 18 -7 3 3 -2 9 -12 12 -14 6 -15 5 -6 -5z"/>
<path d="M10010 5806 c0 -2 8 -10 18 -17 15 -13 16 -12 3 4 -13 16 -21 21 -21
13z"/>
<path d="M9185 5700 c-95 -48 -109 -96 -66 -231 17 -53 31 -108 31 -123 0 -99
-132 -149 -225 -85 -70 48 -84 123 -40 218 14 30 22 58 18 62 -5 5 -42 -22
-83 -60 l-74 -68 34 -57 c42 -69 68 -95 142 -139 135 -81 299 -67 365 32 29
43 29 78 -2 185 -14 47 -25 100 -25 117 0 116 178 148 246 45 20 -32 13 -64
-27 -122 -33 -48 -34 -54 -16 -54 10 0 122 66 146 86 2 2 0 15 -3 29 -10 41
-89 118 -153 151 -77 39 -205 46 -268 14z"/>
<path d="M3060 5671 c0 -25 -29 -57 -192 -216 -126 -122 -202 -188 -220 -192
-15 -3 -25 -9 -22 -14 11 -18 177 -128 186 -123 4 3 -1 18 -12 34 -36 50 -43
84 -27 122 16 38 73 108 89 108 5 0 50 -24 101 -54 102 -60 132 -77 259 -148
47 -27 105 -66 129 -87 l43 -38 -29 -49 c-30 -50 -32 -59 -16 -59 15 0 301
286 296 295 -3 5 -31 -7 -62 -26 -31 -19 -67 -34 -80 -34 -34 0 -97 30 -268
130 -82 48 -178 102 -212 121 -35 18 -63 38 -63 44 0 13 66 67 105 87 48 25
90 30 151 19 117 -22 76 9 -123 95 -33 14 -33 14 -33 -15z"/>
<path d="M2660 5650 c-9 -6 -10 -10 -3 -10 6 0 15 5 18 10 8 12 4 12 -15 0z"/>
<path d="M2386 5613 c-6 -14 -5 -15 5 -6 7 7 10 15 7 18 -3 3 -9 -2 -12 -12z"/>
<path d="M10320 5470 c0 -5 5 -10 11 -10 5 0 7 5 4 10 -3 6 -8 10 -11 10 -2 0
-4 -4 -4 -10z"/>
<path d="M10110 5450 c6 -11 13 -20 16 -20 2 0 0 9 -6 20 -6 11 -13 20 -16 20
-2 0 0 -9 6 -20z"/>
<path d="M9770 5361 c0 -11 4 -22 9 -25 5 -3 11 -18 14 -32 9 -50 -4 -58 -358
-223 -49 -23 -115 -49 -147 -58 l-59 -16 -45 32 c-78 55 -81 34 -8 -54 37 -44
89 -108 116 -142 47 -60 90 -86 73 -45 -36 85 -34 93 36 132 60 33 298 145
386 181 90 37 120 37 171 -1 42 -30 62 -37 62 -22 0 5 -41 58 -91 118 -50 60
-102 124 -117 142 -29 37 -42 41 -42 13z"/>
<path d="M10526 5197 c3 -10 9 -15 12 -12 3 3 0 11 -7 18 -10 9 -11 8 -5 -6z"/>
<path d="M2457 4955 c-119 -178 -123 -193 -40 -129 42 32 52 36 93 31 48 -5
397 -130 490 -175 60 -30 71 -55 51 -113 -8 -23 -7 -29 4 -29 8 0 56 62 106
137 116 173 130 212 48 138 -31 -28 -47 -35 -79 -35 -44 0 -390 121 -500 174
-70 34 -76 47 -57 119 17 62 -24 21 -116 -118z"/>
<path d="M10380 5091 c0 -6 4 -13 10 -16 6 -3 7 1 4 9 -7 18 -14 21 -14 7z"/>
<path d="M10085 4954 c-38 -8 -94 -19 -122 -25 -29 -6 -53 -14 -53 -18 0 -5
29 -11 65 -13 35 -3 81 -14 102 -25 36 -19 103 -102 103 -128 0 -11 -195 -70
-485 -147 -136 -36 -161 -32 -213 27 -41 47 -52 54 -52 32 0 -22 166 -339 176
-335 5 1 7 28 6 59 l-4 56 47 22 c25 12 132 46 238 76 106 29 223 63 262 74
38 12 74 21 78 21 14 0 47 -83 47 -118 0 -51 -22 -84 -83 -125 -50 -34 0 -27
109 13 119 45 118 44 71 75 -9 6 -63 106 -122 223 -87 176 -105 219 -100 243
4 16 5 29 3 28 -2 -1 -34 -8 -73 -15z"/>
<path d="M10540 4815 c0 -5 5 -17 10 -25 5 -8 10 -10 10 -5 0 6 -5 17 -10 25
-5 8 -10 11 -10 5z"/>
<path d="M1806 4745 c-9 -26 -7 -32 5 -12 6 10 9 21 6 23 -2 3 -7 -2 -11 -11z"/>
<path d="M10800 4699 c0 -4 7 -22 15 -40 8 -19 14 -27 14 -19 0 14 -28 72 -29
59z"/>
<path d="M2237 4623 c-5 -8 -67 -217 -67 -226 0 -2 19 -7 43 -10 45 -6 472
-227 459 -238 -4 -3 -108 -20 -232 -38 -203 -29 -290 -36 -344 -29 -15 3 -23
-13 -47 -92 -16 -52 -29 -101 -29 -107 0 -23 20 -14 51 22 42 47 71 46 277
-11 92 -26 200 -55 241 -66 114 -30 144 -47 156 -90 20 -72 29 -61 69 82 15
52 29 103 32 113 4 11 0 17 -10 17 -9 0 -16 -4 -16 -8 0 -5 -14 -23 -31 -40
-43 -44 -82 -42 -332 13 -112 25 -207 45 -210 45 -4 0 -7 4 -7 9 0 4 26 11 58
13 174 16 602 82 602 93 0 7 -128 80 -285 162 -157 82 -283 152 -280 154 8 9
501 -58 530 -72 26 -12 30 -20 33 -62 4 -58 25 -63 40 -9 5 20 26 89 46 152
20 63 36 118 36 123 0 17 -22 4 -55 -32 -19 -21 -48 -41 -64 -44 -42 -9 -564
59 -600 77 -22 12 -31 25 -36 56 -7 39 -19 58 -28 43z"/>
<path d="M10932 4320 c0 -14 2 -19 5 -12 2 6 2 18 0 25 -3 6 -5 1 -5 -13z"/>
<path d="M1841 4284 c0 -11 3 -14 6 -6 3 7 2 16 -1 19 -3 4 -6 -2 -5 -13z"/>
<path d="M10417 4283 c-2 -5 -7 -20 -10 -34 -9 -34 -41 -75 -75 -92 -15 -8
-90 -48 -166 -90 -148 -82 -197 -97 -324 -97 -55 0 -66 3 -86 25 -13 14 -29
39 -36 55 -12 29 -24 37 -33 23 -5 -8 63 -313 77 -349 10 -25 18 -10 20 35 4
71 36 89 204 112 81 11 85 11 255 -31 198 -49 234 -65 278 -120 40 -50 61 -53
49 -7 -4 17 -15 66 -25 107 -28 127 -32 131 -60 63 l-15 -36 -83 7 c-45 3
-125 16 -177 29 l-95 23 125 66 c69 37 141 69 162 73 32 6 38 4 59 -24 46 -63
50 -36 14 117 -14 59 -27 117 -30 130 -5 22 -20 29 -28 15z"/>
<path d="M10751 4264 c0 -11 3 -14 6 -6 3 7 2 16 -1 19 -3 4 -6 -2 -5 -13z"/>
<path d="M10978 4103 c5 -21 7 -23 10 -9 2 10 0 22 -6 28 -6 6 -7 0 -4 -19z"/>
<path d="M1572 3890 c0 -14 2 -19 5 -12 2 6 2 18 0 25 -3 6 -5 1 -5 -13z"/>
<path d="M10070 3530 c-9 -6 -10 -10 -3 -10 6 0 15 5 18 10 8 12 4 12 -15 0z"/>
<path d="M1563 3480 c0 -25 2 -35 4 -22 2 12 2 32 0 45 -2 12 -4 2 -4 -23z"/>
<path d="M2547 3480 c3 -11 7 -20 9 -20 2 0 4 9 4 20 0 11 -4 20 -9 20 -5 0
-7 -9 -4 -20z"/>
<path d="M2720 3466 c0 -2 7 -6 15 -10 8 -3 15 -1 15 4 0 6 -7 10 -15 10 -8 0
-15 -2 -15 -4z"/>
<path d="M10260 3460 c-13 -8 -12 -10 3 -10 9 0 17 5 17 10 0 12 -1 12 -20 0z"/>
<path d="M2237 3399 c7 -7 15 -10 18 -7 3 3 -2 9 -12 12 -14 6 -15 5 -6 -5z"/>
<path d="M2576 3363 c-6 -14 -5 -15 5 -6 7 7 10 15 7 18 -3 3 -9 -2 -12 -12z"/>
<path d="M10006 3365 c4 -8 11 -15 16 -15 6 0 5 6 -2 15 -7 8 -14 15 -16 15
-2 0 -1 -7 2 -15z"/>
<path d="M1572 3330 c0 -19 2 -27 5 -17 2 9 2 25 0 35 -3 9 -5 1 -5 -18z"/>
<path d="M2590 3340 c-8 -5 -10 -10 -5 -10 6 0 17 5 25 10 8 5 11 10 5 10 -5
0 -17 -5 -25 -10z"/>
<path d="M2388 3333 c6 -2 18 -2 25 0 6 3 1 5 -13 5 -14 0 -19 -2 -12 -5z"/>
<path d="M10120 3336 c0 -2 7 -7 16 -10 8 -3 12 -2 9 4 -6 10 -25 14 -25 6z"/>
<path d="M2800 3306 c0 -2 7 -7 16 -10 8 -3 12 -2 9 4 -6 10 -25 14 -25 6z"/>
<path d="M9778 3303 c7 -3 16 -2 19 1 4 3 -2 6 -13 5 -11 0 -14 -3 -6 -6z"/>
<path d="M10180 3296 c0 -2 8 -10 18 -17 15 -13 16 -12 3 4 -13 16 -21 21 -21
13z"/>
<path d="M2135 3280 c-3 -5 -1 -10 4 -10 6 0 11 5 11 10 0 6 -2 10 -4 10 -3 0
-8 -4 -11 -10z"/>
<path d="M10439 3263 c-13 -16 -12 -17 4 -4 9 7 17 15 17 17 0 8 -8 3 -21 -13z"/>
<path d="M10812 3260 c0 -14 2 -19 5 -12 2 6 2 18 0 25 -3 6 -5 1 -5 -13z"/>
<path d="M1581 3224 c0 -11 3 -14 6 -6 3 7 2 16 -1 19 -3 4 -6 -2 -5 -13z"/>
<path d="M10186 3187 c3 -10 9 -15 12 -12 3 3 0 11 -7 18 -10 9 -11 8 -5 -6z"/>
<path d="M2500 3170 c0 -5 5 -10 11 -10 5 0 7 5 4 10 -3 6 -8 10 -11 10 -2 0
-4 -4 -4 -10z"/>
<path d="M9992 3164 c-7 -8 -8 -14 -3 -14 10 0 25 19 20 25 -2 1 -10 -3 -17
-11z"/>
<path d="M10120 3155 c0 -5 5 -17 10 -25 5 -8 10 -10 10 -5 0 6 -5 17 -10 25
-5 8 -10 11 -10 5z"/>
<path d="M10340 3090 c-13 -8 -12 -10 3 -10 9 0 17 5 17 10 0 12 -1 12 -20 0z"/>
<path d="M2430 3051 c0 -6 4 -13 10 -16 6 -3 7 1 4 9 -7 18 -14 21 -14 7z"/>
<path d="M2470 3030 c-9 -6 -10 -10 -3 -10 6 0 15 5 18 10 8 12 4 12 -15 0z"/>
<path d="M10050 3036 c0 -2 7 -7 16 -10 8 -3 12 -2 9 4 -6 10 -25 14 -25 6z"/>
<path d="M1841 2924 c0 -11 3 -14 6 -6 3 7 2 16 -1 19 -3 4 -6 -2 -5 -13z"/>
<path d="M9807 2695 c-15 -30 -23 -55 -17 -55 5 0 12 5 15 10 12 20 44 9 99
-34 65 -50 63 -52 -57 -55 -74 -2 -77 -1 -77 20 0 30 -11 18 -49 -54 -36 -67
-38 -77 -11 -52 42 38 254 50 335 20 43 -17 46 -21 43 -47 -3 -15 -2 -28 2
-28 5 0 79 138 88 165 2 6 -6 -1 -17 -15 -22 -28 -67 -32 -137 -12 -60 17
-189 140 -179 171 13 42 -11 20 -38 -34z"/>
<path d="M2361 2704 c2 -5 13 -33 23 -62 11 -29 24 -52 29 -52 5 0 7 7 3 15
-10 27 22 45 80 45 l55 0 20 -46 c23 -52 21 -56 -54 -90 -35 -16 -38 -16 -57
1 -26 23 -25 18 7 -60 27 -65 43 -82 43 -46 0 24 28 45 197 146 130 78 132 79
105 91 -16 6 -113 17 -217 24 -140 9 -196 17 -214 28 -13 9 -22 12 -20 6z
m369 -63 c0 -5 -13 -14 -30 -21 -16 -7 -35 -18 -41 -26 -18 -22 -45 -16 -57
11 -7 14 -12 30 -12 35 0 6 32 10 70 10 39 0 70 -4 70 -9z"/>
<path d="M10663 2679 c-7 -18 -11 -35 -8 -37 6 -6 27 48 23 60 -2 5 -9 -6 -15
-23z"/>
<path d="M1781 2524 c0 -11 3 -14 6 -6 3 7 2 16 -1 19 -3 4 -6 -2 -5 -13z"/>
<path d="M2883 2459 c2 -32 -1 -34 -63 -59 -36 -15 -102 -40 -147 -56 l-82
-29 -30 23 c-17 12 -31 20 -31 17 0 -13 104 -155 114 -155 6 0 5 5 -2 12 -28
28 -13 49 54 79 53 24 69 28 75 17 14 -21 11 -27 -37 -91 -40 -54 -45 -65 -39
-95 6 -35 32 -82 44 -82 3 0 7 18 7 39 1 42 37 112 73 145 18 16 25 17 47 8
51 -24 128 -7 139 30 9 27 -3 55 -58 138 -64 97 -65 98 -64 59z m71 -95 c3 -9
6 -27 6 -40 0 -53 -113 -70 -155 -24 -10 11 -16 22 -14 24 9 9 125 54 140 55
9 1 20 -6 23 -15z"/>
<path d="M9633 2375 c-135 -115 -99 -268 73 -306 129 -29 260 66 289 211 7 30
6 33 -7 22 -12 -9 -22 -9 -49 4 -57 26 -64 31 -63 48 4 37 -12 20 -82 -89
l-19 -30 29 19 c30 19 80 17 131 -6 29 -13 31 -25 9 -57 -58 -82 -260 -79
-334 6 -34 38 -37 61 -14 104 18 37 82 68 139 69 l40 1 -31 13 c-64 28 -69 28
-111 -9z"/>
<path d="M10516 2365 c-3 -9 -6 -22 -5 -28 0 -7 5 -1 10 12 5 13 8 26 5 28 -2
2 -6 -3 -10 -12z"/>
<path d="M2120 2265 c0 -5 5 -17 10 -25 5 -8 10 -10 10 -5 0 6 -5 17 -10 25
-5 8 -10 11 -10 5z"/>
<path d="M3056 2146 l-48 -22 49 0 c51 0 114 -32 113 -57 -1 -12 -265 -148
-286 -147 -6 0 -23 9 -38 21 -46 36 -27 6 44 -70 40 -43 70 -67 70 -58 0 9 -4
19 -10 22 -22 14 -7 35 43 63 28 16 91 50 138 75 81 43 88 45 101 29 35 -39
40 -62 23 -89 -9 -13 -15 -26 -13 -28 5 -5 87 49 88 58 0 4 -6 7 -13 7 -14 0
-197 195 -197 210 0 13 -7 12 -64 -14z"/>
<path d="M9441 2079 c-93 -28 -169 -117 -158 -184 8 -48 33 -82 86 -113 39
-23 57 -27 121 -27 64 0 82 4 122 28 69 40 103 89 102 147 0 29 -8 57 -20 74
-43 60 -173 99 -253 75z m137 -80 c102 -50 130 -114 72 -163 -39 -33 -85 -41
-152 -27 -97 21 -178 86 -178 144 0 16 11 35 31 51 26 22 40 26 98 26 56 0 79
-6 129 -31z"/>
<path d="M2199 1823 c12 -18 26 -35 31 -38 18 -11 10 2 -21 36 l-31 34 21 -32z"/>
<path d="M8995 1685 c-67 -62 -80 -82 -31 -50 29 20 47 13 163 -59 110 -68
132 -90 115 -116 -7 -11 -12 -22 -12 -25 0 -4 52 39 115 95 l115 102 -37 44
c-21 24 -40 44 -44 44 -4 0 0 -18 8 -40 15 -37 15 -44 0 -74 -8 -19 -29 -43
-45 -54 l-29 -21 -122 75 c-67 42 -125 83 -128 91 -4 9 -1 24 6 34 21 35 -3
19 -74 -46z"/>
<path d="M3075 1720 c-3 -5 -1 -19 5 -30 20 -37 -5 -53 -70 -47 -52 5 -54 4
-25 -9 40 -18 90 -17 126 2 39 19 52 53 31 77 -16 18 -57 23 -67 7z"/>
<path d="M10290 1709 c0 -5 5 -7 10 -4 6 3 10 8 10 11 0 2 -4 4 -10 4 -5 0
-10 -5 -10 -11z"/>
<path d="M3575 1686 c15 -22 14 -25 -22 -57 -49 -44 -152 -123 -180 -137 -15
-9 -30 -9 -49 -2 -15 6 -28 9 -30 7 -7 -7 181 -133 224 -150 99 -39 226 -7
272 68 20 32 21 41 11 74 -6 21 -27 55 -47 75 -36 37 -177 146 -189 146 -3 0
2 -11 10 -24z m120 -92 c55 -55 54 -112 -3 -169 -40 -40 -125 -70 -170 -60
-43 9 -92 43 -92 63 0 10 10 28 23 39 45 43 192 152 204 153 7 0 24 -12 38
-26z"/>
<path d="M2420 1566 c0 -2 7 -9 15 -16 9 -7 15 -8 15 -2 0 5 -7 12 -15 16 -8
3 -15 4 -15 2z"/>
<path d="M8820 1551 c-47 -15 -105 -49 -134 -80 -21 -22 -30 -43 -33 -78 -4
-44 -2 -52 31 -90 48 -56 105 -77 193 -71 58 3 77 9 125 40 70 45 92 84 85
147 -4 38 -12 52 -46 82 -57 51 -149 72 -221 50z m70 -46 c52 -18 116 -68 135
-106 24 -46 19 -75 -18 -103 -67 -51 -189 -26 -261 55 -39 43 -54 84 -39 108
18 29 75 61 108 61 18 0 51 -7 75 -15z"/>
<path d="M10065 1470 c-3 -5 -1 -10 4 -10 6 0 11 5 11 10 0 6 -2 10 -4 10 -3
0 -8 -4 -11 -10z"/>
<path d="M3936 1439 c17 -18 17 -23 4 -46 -8 -15 -53 -60 -99 -101 -81 -73
-84 -74 -124 -68 -23 4 -38 4 -34 0 4 -4 64 -42 134 -85 l128 -77 38 21 c44
24 76 57 42 42 -67 -29 -171 -11 -195 35 -9 17 -4 27 34 68 l45 47 43 -31 c34
-24 43 -36 41 -57 -1 -15 -1 -27 1 -27 1 0 21 19 44 43 l42 43 -34 -4 c-24 -3
-47 3 -75 20 l-40 24 48 48 49 49 43 -29 c55 -38 68 -58 51 -84 -16 -27 -3
-25 37 4 l32 24 -130 81 c-72 45 -133 81 -137 81 -4 0 1 -9 12 -21z"/>
<path d="M9745 1399 c-4 -6 -5 -12 -2 -15 2 -3 7 2 10 11 7 17 1 20 -8 4z"/>
<path d="M8470 1344 c-58 -31 -61 -34 -29 -29 20 3 43 3 52 -1 19 -7 141 -143
135 -149 -3 -4 -337 58 -368 68 -3 1 -29 -8 -57 -21 -53 -23 -71 -39 -32 -29
40 11 79 -15 149 -97 72 -83 85 -117 53 -135 -39 -22 6 -10 74 21 73 33 96 54
46 41 -52 -13 -68 -5 -135 69 -70 75 -81 93 -50 84 15 -5 396 -76 407 -76 14
0 -4 25 -85 119 -96 112 -109 134 -90 156 18 22 2 17 -70 -21z"/>
<path d="M9949 1353 c-13 -16 -12 -17 4 -4 16 13 21 21 13 21 -2 0 -10 -8 -17
-17z"/>
<path d="M2950 1306 c0 -2 8 -10 18 -17 15 -13 16 -12 3 4 -13 16 -21 21 -21
13z"/>
<path d="M2717 1279 c7 -7 15 -10 18 -7 3 3 -2 9 -12 12 -14 6 -15 5 -6 -5z"/>
<path d="M9859 1273 c-13 -16 -12 -17 4 -4 16 13 21 21 13 21 -2 0 -10 -8 -17
-17z"/>
<path d="M3000 1260 c0 -5 5 -10 11 -10 5 0 7 5 4 10 -3 6 -8 10 -11 10 -2 0
-4 -4 -4 -10z"/>
<path d="M4250 1233 c-59 -22 -64 -72 -15 -146 40 -59 43 -77 17 -100 -23 -21
-64 -22 -102 -2 -30 16 -37 32 -42 95 l-3 35 -22 -38 c-29 -48 -18 -68 52
-102 78 -37 153 -38 190 0 34 33 31 56 -10 118 -39 58 -44 86 -17 110 24 22
61 22 91 1 20 -14 22 -23 18 -57 l-6 -40 31 31 c26 26 29 33 19 46 -34 41
-147 69 -201 49z"/>
<path d="M2840 1181 c0 -10 19 -25 25 -20 1 2 -3 10 -11 17 -8 7 -14 8 -14 3z"/>
<path d="M3120 1170 c0 -5 5 -10 11 -10 5 0 7 5 4 10 -3 6 -8 10 -11 10 -2 0
-4 -4 -4 -10z"/>
<path d="M8018 1137 c-97 -36 -118 -49 -66 -40 38 6 65 -14 93 -68 l14 -25
-100 -33 c-111 -37 -111 -37 -140 33 -11 26 -10 31 9 47 12 9 22 19 22 22 0 5
-192 -62 -200 -70 -3 -3 11 -3 30 1 23 4 42 2 52 -6 24 -19 128 -189 128 -209
0 -10 -10 -25 -22 -33 -35 -25 -3 -19 97 19 l90 33 -45 3 c-39 4 -48 9 -72 44
-15 22 -27 45 -28 51 0 10 163 74 189 74 12 0 61 -83 61 -104 0 -8 -12 -22
-27 -30 -43 -23 -20 -19 80 16 101 34 130 50 74 41 -30 -5 -40 -1 -61 22 -33
35 -116 177 -116 197 0 9 10 23 23 31 33 23 12 19 -85 -16z"/>
<path d="M4558 1132 c12 -11 22 -27 22 -35 0 -19 -126 -194 -148 -206 -9 -5
-31 -7 -47 -4 -17 3 -28 3 -25 0 10 -11 191 -79 196 -74 3 3 -3 8 -14 11 -38
13 -34 36 23 121 69 102 91 123 135 127 32 3 28 6 -55 38 -116 45 -114 45 -87
22z"/>
<path d="M4783 1008 c-48 -16 -92 -58 -108 -103 -11 -34 -11 -45 1 -75 20 -47
38 -65 90 -89 48 -23 100 -36 189 -46 51 -6 57 -5 47 8 -16 19 23 79 58 87 19
5 6 12 -68 36 -86 28 -124 32 -67 6 29 -13 32 -39 10 -82 -18 -35 -57 -40
-105 -15 -68 35 -93 102 -61 168 27 56 70 87 131 94 90 11 154 -28 170 -102
l6 -29 23 38 c27 44 28 42 -59 83 -43 20 -74 27 -140 29 -47 2 -99 -2 -117 -8z"/>
<path d="M7503 979 c-101 -19 -178 -76 -192 -140 -10 -52 -3 -76 37 -118 62
-65 182 -77 305 -30 78 29 78 29 71 82 -7 47 -24 56 -24 13 0 -30 -35 -75 -69
-88 -42 -15 -105 -11 -147 10 -138 71 -128 236 15 250 61 5 90 -1 121 -28 30
-26 34 -21 15 23 -14 34 -19 37 -53 36 -20 -1 -56 -5 -79 -10z"/>
<path d="M3140 956 c0 -2 7 -7 16 -10 8 -3 12 -2 9 4 -6 10 -25 14 -25 6z"/>
<path d="M5185 931 c48 -21 50 -34 20 -141 -31 -107 -43 -126 -90 -132 -25 -3
-22 -6 25 -15 30 -7 73 -15 95 -18 l40 -5 -32 15 c-43 20 -45 35 -12 148 11
37 23 67 27 67 4 -1 33 -35 64 -78 114 -152 151 -197 162 -197 6 0 31 61 56
135 42 127 47 135 73 138 44 5 31 19 -25 25 -29 3 -69 8 -88 12 l-35 6 35 -18
c19 -10 36 -27 38 -37 5 -23 -38 -176 -48 -176 -4 0 -10 6 -13 13 -8 21 -168
231 -185 244 -10 6 -42 14 -72 17 -36 4 -48 3 -35 -3z"/>
<path d="M7020 875 c-158 -28 -174 -32 -134 -34 17 0 38 -9 47 -19 14 -15 54
-130 70 -200 6 -24 -15 -52 -39 -52 -8 0 -14 -4 -14 -8 0 -4 77 6 170 22 l170
30 0 42 c0 50 -15 66 -25 26 -10 -42 -33 -60 -91 -72 -68 -14 -87 -4 -108 57
-18 53 -13 61 39 64 50 3 68 -1 89 -19 18 -16 19 -16 12 8 -4 14 -9 40 -13 58
-5 31 -23 45 -23 18 0 -23 -25 -36 -78 -43 l-50 -5 -17 51 c-9 29 -14 55 -11
58 3 3 36 8 74 11 63 4 71 2 90 -19 22 -22 22 -22 22 -2 0 60 -2 61 -180 28z"/>
<path d="M6810 850 c-16 -9 -270 -27 -327 -23 -33 2 -33 2 -33 -42 0 -46 14
-61 23 -26 7 27 45 49 92 53 38 3 39 2 48 -37 4 -22 9 -80 10 -130 l2 -90 -35
-12 c-35 -12 -34 -12 25 -11 33 0 89 3 125 7 65 6 65 6 24 14 -26 4 -45 14
-49 24 -6 16 -34 199 -35 231 0 15 83 16 113 1 12 -6 30 -21 40 -33 18 -21 18
-21 11 14 -11 59 -17 70 -34 60z"/>
<path d="M5913 833 c-21 -4 -63 -46 -63 -62 0 -4 9 -17 20 -29 27 -28 25 -34
-12 -52 -18 -8 -41 -27 -51 -42 -61 -83 84 -154 199 -97 l43 22 24 -29 c21
-24 33 -28 90 -32 36 -2 73 1 83 7 16 9 14 10 -17 11 -34 0 -72 22 -113 63
-14 14 -16 20 -6 32 21 25 79 57 128 70 l47 13 -55 1 c-30 1 -73 4 -95 6 -32
5 -36 4 -17 -4 28 -13 28 -32 -2 -60 -28 -27 -43 -22 -94 32 l-34 35 30 6 c16
4 39 16 51 27 53 50 -48 103 -156 82z m85 -19 c27 -19 28 -45 2 -69 -23 -21
-43 -15 -66 21 -18 26 -17 27 5 45 28 23 31 23 59 3z m-23 -170 c58 -53 59
-55 40 -70 -30 -23 -104 -11 -132 21 -13 15 -23 32 -23 39 0 15 38 66 48 66 4
-1 34 -25 67 -56z"/>
<path d="M8875 810 c-3 -6 1 -7 9 -4 18 7 21 14 7 14 -6 0 -13 -4 -16 -10z"/>
<path d="M9185 800 c-16 -7 -17 -9 -3 -9 9 -1 20 4 23 9 7 11 7 11 -20 0z"/>
<path d="M3427 779 c7 -7 15 -10 18 -7 3 3 -2 9 -12 12 -14 6 -15 5 -6 -5z"/>
<path d="M3780 775 c0 -7 61 -37 66 -33 2 3 -12 12 -31 21 -19 9 -35 15 -35
12z"/>
<path d="M9110 759 l-25 -20 33 16 c17 8 32 18 32 20 0 10 -16 4 -40 -16z"/>
<path d="M8270 540 c-9 -6 -10 -10 -3 -10 6 0 15 5 18 10 8 12 4 12 -15 0z"/>
<path d="M4430 500 c8 -5 22 -9 30 -9 10 0 8 3 -5 9 -27 12 -43 12 -25 0z"/>
<path d="M8168 503 c7 -3 16 -2 19 1 4 3 -2 6 -13 5 -11 0 -14 -3 -6 -6z"/>
<path d="M4748 403 c7 -3 16 -2 19 1 4 3 -2 6 -13 5 -11 0 -14 -3 -6 -6z"/>
<path d="M4300 385 c14 -8 30 -14 35 -14 6 0 -1 6 -15 14 -14 8 -29 14 -35 14
-5 0 1 -6 15 -14z"/>
<path d="M7718 373 c7 -3 16 -2 19 1 4 3 -2 6 -13 5 -11 0 -14 -3 -6 -6z"/>
<path d="M7678 363 c7 -3 16 -2 19 1 4 3 -2 6 -13 5 -11 0 -14 -3 -6 -6z"/>
<path d="M4426 351 c-3 -5 1 -11 9 -14 9 -4 12 -1 8 9 -6 16 -10 17 -17 5z"/>
<path d="M7348 293 c6 -2 18 -2 25 0 6 3 1 5 -13 5 -14 0 -19 -2 -12 -5z"/>
<path d="M5288 283 c6 -2 18 -2 25 0 6 3 1 5 -13 5 -14 0 -19 -2 -12 -5z"/>
<path d="M5443 113 c9 -2 23 -2 30 0 6 3 -1 5 -18 5 -16 0 -22 -2 -12 -5z"/>
</g>
</svg>
